{
	"asset":{
		"generator":"Khronos glTF Blender I/O v3.6.27",
		"version":"2.0"
	},
	"extensionsUsed":[
		"KHR_materials_specular",
		"KHR_materials_ior"
	],
	"scene":0,
	"scenes":[
		{
			"name":"Scene",
			"nodes":[
				0
			]
		}
	],
	"nodes":[
		{
			"mesh":0,
			"name":"A_Bungalo",
			"rotation":[
				0,
				-0.8572700023651123,
				0,
				0.5148671269416809
			]
		}
	],
	"materials":[
		{
			"doubleSided":true,
			"extensions":{
				"KHR_materials_specular":{
					"specularColorFactor":[
						0,
						0,
						0
					]
				},
				"KHR_materials_ior":{
					"ior":1.4500000476837158
				}
			},
			"name":"Bungalo",
			"pbrMetallicRoughness":{
				"baseColorTexture":{
					"index":0
				},
				"metallicFactor":0
			}
		}
	],
	"meshes":[
		{
			"name":"Cylinder.008",
			"primitives":[
				{
					"attributes":{
						"POSITION":0,
						"NORMAL":1,
						"TEXCOORD_0":2
					},
					"indices":3,
					"material":0
				}
			]
		}
	],
	"textures":[
		{
			"sampler":0,
			"source":0
		}
	],
	"images":[
		{
			"mimeType":"image/png",
			"name":"bungalo-dif",
			"uri":"bungalo-dif.png"
		}
	],
	"accessors":[
		{
			"bufferView":0,
			"componentType":5126,
			"count":3082,
			"max":[
				3.7331268787384033,
				3.3669800758361816,
				5.589545726776123
			],
			"min":[
				-4.036799430847168,
				-1.3115590810775757,
				-4.271093368530273
			],
			"type":"VEC3"
		},
		{
			"bufferView":1,
			"componentType":5126,
			"count":3082,
			"type":"VEC3"
		},
		{
			"bufferView":2,
			"componentType":5126,
			"count":3082,
			"type":"VEC2"
		},
		{
			"bufferView":3,
			"componentType":5123,
			"count":5436,
			"type":"SCALAR"
		}
	],
	"bufferViews":[
		{
			"buffer":0,
			"byteLength":36984,
			"byteOffset":0,
			"target":34962
		},
		{
			"buffer":0,
			"byteLength":36984,
			"byteOffset":36984,
			"target":34962
		},
		{
			"buffer":0,
			"byteLength":24656,
			"byteOffset":73968,
			"target":34962
		},
		{
			"buffer":0,
			"byteLength":10872,
			"byteOffset":98624,
			"target":34963
		}
	],
	"samplers":[
		{
			"magFilter":9729,
			"minFilter":9987
		}
	],
	"buffers":[
		{
			"byteLength":109496,
			"uri":"Bungalo.bin"
		}
	]
}
