{
	"asset":{
		"generator":"Khronos glTF Blender I/O v3.6.27",
		"version":"2.0"
	},
	"scene":0,
	"scenes":[
		{
			"name":"Scene",
			"nodes":[
				0
			]
		}
	],
	"nodes":[
		{
			"mesh":0,
			"name":"Docks",
			"rotation":[
				0,
				0.7452396750450134,
				0,
				0.6667966842651367
			]
		}
	],
	"materials":[
		{
			"doubleSided":true,
			"name":"Docks",
			"pbrMetallicRoughness":{
				"baseColorTexture":{
					"index":0
				},
				"metallicFactor":0,
				"roughnessFactor":0.5
			}
		}
	],
	"meshes":[
		{
			"name":"DocksMesh",
			"primitives":[
				{
					"attributes":{
						"POSITION":0,
						"NORMAL":1,
						"TEXCOORD_0":2
					},
					"indices":3,
					"material":0
				}
			]
		}
	],
	"textures":[
		{
			"sampler":0,
			"source":0
		}
	],
	"images":[
		{
			"mimeType":"image/png",
			"name":"docks-dif",
			"uri":"docks-dif.png"
		}
	],
	"accessors":[
		{
			"bufferView":0,
			"componentType":5126,
			"count":1481,
			"max":[
				2.3278753757476807,
				4.63783597946167,
				3.460052967071533
			],
			"min":[
				-2.4778287410736084,
				-1.0295567512512207,
				-6.573300838470459
			],
			"type":"VEC3"
		},
		{
			"bufferView":1,
			"componentType":5126,
			"count":1481,
			"type":"VEC3"
		},
		{
			"bufferView":2,
			"componentType":5126,
			"count":1481,
			"type":"VEC2"
		},
		{
			"bufferView":3,
			"componentType":5123,
			"count":2262,
			"type":"SCALAR"
		}
	],
	"bufferViews":[
		{
			"buffer":0,
			"byteLength":17772,
			"byteOffset":0,
			"target":34962
		},
		{
			"buffer":0,
			"byteLength":17772,
			"byteOffset":17772,
			"target":34962
		},
		{
			"buffer":0,
			"byteLength":11848,
			"byteOffset":35544,
			"target":34962
		},
		{
			"buffer":0,
			"byteLength":4524,
			"byteOffset":47392,
			"target":34963
		}
	],
	"samplers":[
		{
			"magFilter":9729,
			"minFilter":9987
		}
	],
	"buffers":[
		{
			"byteLength":51916,
			"uri":"Docks.bin"
		}
	]
}
