{
	"asset":{
		"generator":"Khronos glTF Blender I/O v3.6.27",
		"version":"2.0"
	},
	"scene":0,
	"scenes":[
		{
			"name":"Scene",
			"nodes":[
				0
			]
		}
	],
	"nodes":[
		{
			"mesh":0,
			"name":"Factory",
			"scale":[
				0.5279361009597778,
				2.0268137454986572,
				0.5279361009597778
			]
		}
	],
	"meshes":[
		{
			"name":"Cylinder.019",
			"primitives":[
				{
					"attributes":{
						"POSITION":0,
						"NORMAL":1,
						"TEXCOORD_0":2
					},
					"indices":3
				}
			]
		}
	],
	"accessors":[
		{
			"bufferView":0,
			"componentType":5126,
			"count":1534,
			"max":[
				11.32165813446045,
				1.942393183708191,
				6.6847429275512695
			],
			"min":[
				-11.368436813354492,
				-1.0725568532943726,
				-6.752012252807617
			],
			"type":"VEC3"
		},
		{
			"bufferView":1,
			"componentType":5126,
			"count":1534,
			"type":"VEC3"
		},
		{
			"bufferView":2,
			"componentType":5126,
			"count":1534,
			"type":"VEC2"
		},
		{
			"bufferView":3,
			"componentType":5123,
			"count":6390,
			"type":"SCALAR"
		}
	],
	"bufferViews":[
		{
			"buffer":0,
			"byteLength":18408,
			"byteOffset":0,
			"target":34962
		},
		{
			"buffer":0,
			"byteLength":18408,
			"byteOffset":18408,
			"target":34962
		},
		{
			"buffer":0,
			"byteLength":12272,
			"byteOffset":36816,
			"target":34962
		},
		{
			"buffer":0,
			"byteLength":12780,
			"byteOffset":49088,
			"target":34963
		}
	],
	"buffers":[
		{
			"byteLength":61868,
			"uri":"Factory.bin"
		}
	]
}
