{
	"asset":{
		"generator":"Khronos glTF Blender I/O v3.6.27",
		"version":"2.0"
	},
	"extensionsUsed":[
		"KHR_materials_specular",
		"KHR_materials_ior"
	],
	"scene":0,
	"scenes":[
		{
			"name":"Scene",
			"nodes":[
				0
			]
		}
	],
	"nodes":[
		{
			"mesh":0,
			"name":"Hotel",
			"scale":[
				0.7215948104858398,
				0.7215948104858398,
				0.7215948104858398
			]
		}
	],
	"materials":[
		{
			"doubleSided":true,
			"extensions":{
				"KHR_materials_specular":{
					"specularColorFactor":[
						0,
						0,
						0
					]
				},
				"KHR_materials_ior":{
					"ior":1.4500000476837158
				}
			},
			"name":"Hotel",
			"pbrMetallicRoughness":{
				"baseColorTexture":{
					"index":0
				},
				"metallicFactor":0,
				"roughnessFactor":0.5
			}
		}
	],
	"meshes":[
		{
			"name":"Hotel",
			"primitives":[
				{
					"attributes":{
						"POSITION":0,
						"NORMAL":1,
						"TEXCOORD_0":2
					},
					"indices":3,
					"material":0
				}
			]
		}
	],
	"textures":[
		{
			"sampler":0,
			"source":0
		}
	],
	"images":[
		{
			"mimeType":"image/png",
			"name":"Hotel-dif",
			"uri":"Hotel-dif.png"
		}
	],
	"accessors":[
		{
			"bufferView":0,
			"componentType":5126,
			"count":252,
			"max":[
				3.394164562225342,
				5.775526523590088,
				1.6248366832733154
			],
			"min":[
				-3.654404640197754,
				-1.5539848804473877,
				-1.6248366832733154
			],
			"type":"VEC3"
		},
		{
			"bufferView":1,
			"componentType":5126,
			"count":252,
			"type":"VEC3"
		},
		{
			"bufferView":2,
			"componentType":5126,
			"count":252,
			"type":"VEC2"
		},
		{
			"bufferView":3,
			"componentType":5123,
			"count":480,
			"type":"SCALAR"
		}
	],
	"bufferViews":[
		{
			"buffer":0,
			"byteLength":3024,
			"byteOffset":0,
			"target":34962
		},
		{
			"buffer":0,
			"byteLength":3024,
			"byteOffset":3024,
			"target":34962
		},
		{
			"buffer":0,
			"byteLength":2016,
			"byteOffset":6048,
			"target":34962
		},
		{
			"buffer":0,
			"byteLength":960,
			"byteOffset":8064,
			"target":34963
		}
	],
	"samplers":[
		{
			"magFilter":9729,
			"minFilter":9987
		}
	],
	"buffers":[
		{
			"byteLength":9024,
			"uri":"Hotel.bin"
		}
	]
}
