{
	"asset":{
		"generator":"Khronos glTF Blender I/O v3.6.27",
		"version":"2.0"
	},
	"scene":0,
	"scenes":[
		{
			"name":"Scene",
			"nodes":[
				0
			]
		}
	],
	"nodes":[
		{
			"mesh":0,
			"name":"LaunchSite",
			"rotation":[
				0,
				-0.726317822933197,
				0,
				0.687359094619751
			],
			"scale":[
				0.7090597152709961,
				0.7090595960617065,
				0.7090597152709961
			]
		}
	],
	"materials":[
		{
			"doubleSided":true,
			"name":"LaunchSite",
			"pbrMetallicRoughness":{
				"baseColorTexture":{
					"index":0
				},
				"metallicFactor":0,
				"roughnessFactor":0.5
			}
		}
	],
	"meshes":[
		{
			"name":"LaunchSite",
			"primitives":[
				{
					"attributes":{
						"POSITION":0,
						"NORMAL":1,
						"TEXCOORD_0":2
					},
					"indices":3,
					"material":0
				}
			]
		}
	],
	"textures":[
		{
			"sampler":0,
			"source":0
		}
	],
	"images":[
		{
			"mimeType":"image/png",
			"name":"LaunchSite-dif",
			"uri":"LaunchSite-dif.png"
		}
	],
	"accessors":[
		{
			"bufferView":0,
			"componentType":5126,
			"count":3574,
			"max":[
				2.352508544921875,
				12.027877807617188,
				7.119288921356201
			],
			"min":[
				-2.091151475906372,
				-2.3261678218841553,
				-3.914501667022705
			],
			"type":"VEC3"
		},
		{
			"bufferView":1,
			"componentType":5126,
			"count":3574,
			"type":"VEC3"
		},
		{
			"bufferView":2,
			"componentType":5126,
			"count":3574,
			"type":"VEC2"
		},
		{
			"bufferView":3,
			"componentType":5123,
			"count":5652,
			"type":"SCALAR"
		}
	],
	"bufferViews":[
		{
			"buffer":0,
			"byteLength":42888,
			"byteOffset":0,
			"target":34962
		},
		{
			"buffer":0,
			"byteLength":42888,
			"byteOffset":42888,
			"target":34962
		},
		{
			"buffer":0,
			"byteLength":28592,
			"byteOffset":85776,
			"target":34962
		},
		{
			"buffer":0,
			"byteLength":11304,
			"byteOffset":114368,
			"target":34963
		}
	],
	"samplers":[
		{
			"magFilter":9729,
			"minFilter":9987
		}
	],
	"buffers":[
		{
			"byteLength":125672,
			"uri":"LaunchSite.bin"
		}
	]
}
