{
	"asset":{
		"generator":"Khronos glTF Blender I/O v3.6.27",
		"version":"2.0"
	},
	"extensionsUsed":[
		"KHR_materials_specular",
		"KHR_materials_ior"
	],
	"scene":0,
	"scenes":[
		{
			"name":"Scene",
			"nodes":[
				0
			]
		}
	],
	"nodes":[
		{
			"mesh":0,
			"name":"Meteo",
			"rotation":[
				0.8403587937355042,
				0.15846015512943268,
				-0.34142959117889404,
				0.390017032623291
			],
			"scale":[
				0.7359846830368042,
				0.7359846830368042,
				0.7359846830368042
			],
			"translation":[
				-1.0148617029190063,
				4.978703022003174,
				0
			]
		}
	],
	"materials":[
		{
			"doubleSided":true,
			"extensions":{
				"KHR_materials_specular":{
					"specularColorFactor":[
						0,
						0,
						0
					]
				},
				"KHR_materials_ior":{
					"ior":1.4500000476837158
				}
			},
			"name":"Meteo",
			"pbrMetallicRoughness":{
				"baseColorTexture":{
					"index":0
				},
				"metallicFactor":0,
				"roughnessFactor":0.5
			}
		}
	],
	"meshes":[
		{
			"name":"Meteo",
			"primitives":[
				{
					"attributes":{
						"POSITION":0,
						"NORMAL":1,
						"TEXCOORD_0":2
					},
					"indices":3,
					"material":0
				}
			]
		}
	],
	"textures":[
		{
			"sampler":0,
			"source":0
		}
	],
	"images":[
		{
			"mimeType":"image/png",
			"name":"Meteo2-dif",
			"uri":"Meteo2-dif.png"
		}
	],
	"accessors":[
		{
			"bufferView":0,
			"componentType":5126,
			"count":2570,
			"max":[
				3.5954129695892334,
				8.955522537231445,
				8.761155128479004
			],
			"min":[
				-1.5162198543548584,
				-0.20277953147888184,
				-0.9238795042037964
			],
			"type":"VEC3"
		},
		{
			"bufferView":1,
			"componentType":5126,
			"count":2570,
			"type":"VEC3"
		},
		{
			"bufferView":2,
			"componentType":5126,
			"count":2570,
			"type":"VEC2"
		},
		{
			"bufferView":3,
			"componentType":5123,
			"count":4248,
			"type":"SCALAR"
		}
	],
	"bufferViews":[
		{
			"buffer":0,
			"byteLength":30840,
			"byteOffset":0,
			"target":34962
		},
		{
			"buffer":0,
			"byteLength":30840,
			"byteOffset":30840,
			"target":34962
		},
		{
			"buffer":0,
			"byteLength":20560,
			"byteOffset":61680,
			"target":34962
		},
		{
			"buffer":0,
			"byteLength":8496,
			"byteOffset":82240,
			"target":34963
		}
	],
	"samplers":[
		{
			"magFilter":9729,
			"minFilter":9987
		}
	],
	"buffers":[
		{
			"byteLength":90736,
			"uri":"Meteo.bin"
		}
	]
}
