{
	"asset":{
		"generator":"Khronos glTF Blender I/O v3.6.27",
		"version":"2.0"
	},
	"scene":0,
	"scenes":[
		{
			"name":"Scene",
			"nodes":[
				0
			]
		}
	],
	"nodes":[
		{
			"mesh":0,
			"name":"Meteo"
		}
	],
	"meshes":[
		{
			"name":"Icosphere.001",
			"primitives":[
				{
					"attributes":{
						"POSITION":0,
						"NORMAL":1,
						"TEXCOORD_0":2
					},
					"indices":3
				}
			]
		}
	],
	"accessors":[
		{
			"bufferView":0,
			"componentType":5126,
			"count":2658,
			"max":[
				1.9598264694213867,
				7.130706310272217,
				2.0195224285125732
			],
			"min":[
				-2.0401735305786133,
				-2.4817445278167725,
				-1.9804775714874268
			],
			"type":"VEC3"
		},
		{
			"bufferView":1,
			"componentType":5126,
			"count":2658,
			"type":"VEC3"
		},
		{
			"bufferView":2,
			"componentType":5126,
			"count":2658,
			"type":"VEC2"
		},
		{
			"bufferView":3,
			"componentType":5123,
			"count":4248,
			"type":"SCALAR"
		}
	],
	"bufferViews":[
		{
			"buffer":0,
			"byteLength":31896,
			"byteOffset":0,
			"target":34962
		},
		{
			"buffer":0,
			"byteLength":31896,
			"byteOffset":31896,
			"target":34962
		},
		{
			"buffer":0,
			"byteLength":21264,
			"byteOffset":63792,
			"target":34962
		},
		{
			"buffer":0,
			"byteLength":8496,
			"byteOffset":85056,
			"target":34963
		}
	],
	"buffers":[
		{
			"byteLength":93552,
			"uri":"Meteo.bin"
		}
	]
}
