{
	"asset":{
		"generator":"Khronos glTF Blender I/O v3.6.27",
		"version":"2.0"
	},
	"scene":0,
	"scenes":[
		{
			"name":"Scene",
			"nodes":[
				0
			]
		}
	],
	"nodes":[
		{
			"mesh":0,
			"name":"Theatre"
		}
	],
	"materials":[
		{
			"doubleSided":true,
			"name":"Theatre",
			"pbrMetallicRoughness":{
				"baseColorTexture":{
					"index":0
				},
				"metallicFactor":0,
				"roughnessFactor":0.5
			}
		}
	],
	"meshes":[
		{
			"name":"TheatreMesh",
			"primitives":[
				{
					"attributes":{
						"POSITION":0,
						"NORMAL":1,
						"TEXCOORD_0":2
					},
					"indices":3,
					"material":0
				}
			]
		}
	],
	"textures":[
		{
			"sampler":0,
			"source":0
		}
	],
	"images":[
		{
			"mimeType":"image/png",
			"name":"Theatre-dif",
			"uri":"Theatre-dif.png"
		}
	],
	"accessors":[
		{
			"bufferView":0,
			"componentType":5126,
			"count":1134,
			"max":[
				2.6861300468444824,
				2.829230546951294,
				2.1606521606445312
			],
			"min":[
				-2.7021093368530273,
				-1.3799865245819092,
				-2.1342523097991943
			],
			"type":"VEC3"
		},
		{
			"bufferView":1,
			"componentType":5126,
			"count":1134,
			"type":"VEC3"
		},
		{
			"bufferView":2,
			"componentType":5126,
			"count":1134,
			"type":"VEC2"
		},
		{
			"bufferView":3,
			"componentType":5123,
			"count":2796,
			"type":"SCALAR"
		}
	],
	"bufferViews":[
		{
			"buffer":0,
			"byteLength":13608,
			"byteOffset":0,
			"target":34962
		},
		{
			"buffer":0,
			"byteLength":13608,
			"byteOffset":13608,
			"target":34962
		},
		{
			"buffer":0,
			"byteLength":9072,
			"byteOffset":27216,
			"target":34962
		},
		{
			"buffer":0,
			"byteLength":5592,
			"byteOffset":36288,
			"target":34963
		}
	],
	"samplers":[
		{
			"magFilter":9729,
			"minFilter":9987
		}
	],
	"buffers":[
		{
			"byteLength":41880,
			"uri":"Theatre.bin"
		}
	]
}
