{
	"asset":{
		"generator":"Khronos glTF Blender I/O v3.6.27",
		"version":"2.0"
	},
	"extensionsUsed":[
		"KHR_materials_specular",
		"KHR_materials_ior"
	],
	"scene":0,
	"scenes":[
		{
			"name":"Scene",
			"nodes":[
				0
			]
		}
	],
	"nodes":[
		{
			"mesh":0,
			"name":"Winery"
		}
	],
	"materials":[
		{
			"doubleSided":true,
			"extensions":{
				"KHR_materials_specular":{
					"specularColorFactor":[
						0,
						0,
						0
					]
				},
				"KHR_materials_ior":{
					"ior":1.4500000476837158
				}
			},
			"name":"Winery",
			"pbrMetallicRoughness":{
				"baseColorTexture":{
					"index":0
				},
				"metallicFactor":0,
				"roughnessFactor":0.5
			}
		}
	],
	"meshes":[
		{
			"name":"WineryMesh",
			"primitives":[
				{
					"attributes":{
						"POSITION":0,
						"NORMAL":1,
						"TEXCOORD_0":2
					},
					"indices":3,
					"material":0
				}
			]
		}
	],
	"textures":[
		{
			"sampler":0,
			"source":0
		}
	],
	"images":[
		{
			"mimeType":"image/png",
			"name":"Winery-dif",
			"uri":"Winery-dif.png"
		}
	],
	"accessors":[
		{
			"bufferView":0,
			"componentType":5126,
			"count":47010,
			"max":[
				2.6578316688537598,
				2.4598584175109863,
				1.33773934841156
			],
			"min":[
				-1.2123812437057495,
				-1.4554213285446167,
				-1.6547367572784424
			],
			"type":"VEC3"
		},
		{
			"bufferView":1,
			"componentType":5126,
			"count":47010,
			"type":"VEC3"
		},
		{
			"bufferView":2,
			"componentType":5126,
			"count":47010,
			"type":"VEC2"
		},
		{
			"bufferView":3,
			"componentType":5123,
			"count":75018,
			"type":"SCALAR"
		}
	],
	"bufferViews":[
		{
			"buffer":0,
			"byteLength":564120,
			"byteOffset":0,
			"target":34962
		},
		{
			"buffer":0,
			"byteLength":564120,
			"byteOffset":564120,
			"target":34962
		},
		{
			"buffer":0,
			"byteLength":376080,
			"byteOffset":1128240,
			"target":34962
		},
		{
			"buffer":0,
			"byteLength":150036,
			"byteOffset":1504320,
			"target":34963
		}
	],
	"samplers":[
		{
			"magFilter":9729,
			"minFilter":9987
		}
	],
	"buffers":[
		{
			"byteLength":1654356,
			"uri":"Winery.bin"
		}
	]
}
