{
	"asset":{
		"generator":"Khronos glTF Blender I/O v3.6.27",
		"version":"2.0"
	},
	"extensionsUsed":[
		"KHR_materials_specular",
		"KHR_materials_ior"
	],
	"scene":0,
	"scenes":[
		{
			"name":"Scene",
			"nodes":[
				0
			]
		}
	],
	"nodes":[
		{
			"mesh":0,
			"name":"Winery",
			"rotation":[
				0.47463753819465637,
				0,
				-0.8801813721656799,
				6.645184669196169e-08
			],
			"scale":[
				0.6098828315734863,
				0.6098828315734863,
				0.6098828315734863
			]
		}
	],
	"materials":[
		{
			"doubleSided":true,
			"extensions":{
				"KHR_materials_specular":{
					"specularColorFactor":[
						0,
						0,
						0
					]
				},
				"KHR_materials_ior":{
					"ior":1.4500000476837158
				}
			},
			"name":"Winery",
			"pbrMetallicRoughness":{
				"baseColorTexture":{
					"index":0
				},
				"metallicFactor":0,
				"roughnessFactor":0.5
			}
		}
	],
	"meshes":[
		{
			"name":"WineryMesh",
			"primitives":[
				{
					"attributes":{
						"POSITION":0,
						"NORMAL":1,
						"TEXCOORD_0":2
					},
					"indices":3,
					"material":0
				}
			]
		}
	],
	"textures":[
		{
			"sampler":0,
			"source":0
		}
	],
	"images":[
		{
			"mimeType":"image/png",
			"name":"Winery-dif",
			"uri":"Winery-dif.png"
		}
	],
	"accessors":[
		{
			"bufferView":0,
			"componentType":5126,
			"count":47081,
			"max":[
				4.123388290405273,
				2.38639497756958,
				4.749021053314209
			],
			"min":[
				-2.834444522857666,
				-4.033329486846924,
				-2.7792367935180664
			],
			"type":"VEC3"
		},
		{
			"bufferView":1,
			"componentType":5126,
			"count":47081,
			"type":"VEC3"
		},
		{
			"bufferView":2,
			"componentType":5126,
			"count":47081,
			"type":"VEC2"
		},
		{
			"bufferView":3,
			"componentType":5123,
			"count":75018,
			"type":"SCALAR"
		}
	],
	"bufferViews":[
		{
			"buffer":0,
			"byteLength":564972,
			"byteOffset":0,
			"target":34962
		},
		{
			"buffer":0,
			"byteLength":564972,
			"byteOffset":564972,
			"target":34962
		},
		{
			"buffer":0,
			"byteLength":376648,
			"byteOffset":1129944,
			"target":34962
		},
		{
			"buffer":0,
			"byteLength":150036,
			"byteOffset":1506592,
			"target":34963
		}
	],
	"samplers":[
		{
			"magFilter":9729,
			"minFilter":9987
		}
	],
	"buffers":[
		{
			"byteLength":1656628,
			"uri":"Winery.bin"
		}
	]
}
