{
	"asset":{
		"generator":"Khronos glTF Blender I/O v3.6.27",
		"version":"2.0"
	},
	"scene":0,
	"scenes":[
		{
			"name":"Scene",
			"nodes":[
				0
			]
		}
	],
	"nodes":[
		{
			"mesh":0,
			"name":"Docks",
			"rotation":[
				0,
				0.7452396750450134,
				0,
				0.6667966842651367
			],
			"translation":[
				46.15983200073242,
				-0.7770165205001831,
				40.81892013549805
			]
		}
	],
	"materials":[
		{
			"doubleSided":true,
			"name":"Docks",
			"pbrMetallicRoughness":{
				"baseColorTexture":{
					"index":0
				},
				"metallicFactor":0,
				"roughnessFactor":0.5
			}
		}
	],
	"meshes":[
		{
			"name":"Cube.017",
			"primitives":[
				{
					"attributes":{
						"POSITION":0,
						"NORMAL":1,
						"TEXCOORD_0":2
					},
					"indices":3,
					"material":0
				}
			]
		}
	],
	"textures":[
		{
			"sampler":0,
			"source":0
		}
	],
	"images":[
		{
			"mimeType":"image/png",
			"name":"docks-dif",
			"uri":"docks-dif.png"
		}
	],
	"accessors":[
		{
			"bufferView":0,
			"componentType":5126,
			"count":1477,
			"max":[
				2.3278753757476807,
				5.380873680114746,
				5.403092861175537
			],
			"min":[
				-2.4778287410736084,
				0.04987798631191254,
				-3.412532329559326
			],
			"type":"VEC3"
		},
		{
			"bufferView":1,
			"componentType":5126,
			"count":1477,
			"type":"VEC3"
		},
		{
			"bufferView":2,
			"componentType":5126,
			"count":1477,
			"type":"VEC2"
		},
		{
			"bufferView":3,
			"componentType":5123,
			"count":2262,
			"type":"SCALAR"
		}
	],
	"bufferViews":[
		{
			"buffer":0,
			"byteLength":17724,
			"byteOffset":0,
			"target":34962
		},
		{
			"buffer":0,
			"byteLength":17724,
			"byteOffset":17724,
			"target":34962
		},
		{
			"buffer":0,
			"byteLength":11816,
			"byteOffset":35448,
			"target":34962
		},
		{
			"buffer":0,
			"byteLength":4524,
			"byteOffset":47264,
			"target":34963
		}
	],
	"samplers":[
		{
			"magFilter":9729,
			"minFilter":9987
		}
	],
	"buffers":[
		{
			"byteLength":51788,
			"uri":"Docks.bin"
		}
	]
}
